<svg width="512" height="512" xmlns="http://www.w3.org/2000/svg">
 <!-- Created with SVG-edit - http://svg-edit.googlecode.com/ -->
 <title>d_images.vtf</title>
 <g>
  <title>Layer 1</title>
  <path stroke-opacity="0.02" id="svg_5" d="m7.5,31.5l1,0l2,-1.5l-0.5,-2l-1,-1l-1,-0.5l-1,0.5l-0.5,1l1,3.5z" stroke-linecap="null" stroke-linejoin="null" stroke-dasharray="null" stroke-width="0" stroke="#000000" fill="#e5e0b5"/>
  <path stroke-opacity="0.02" id="svg_6" d="m11.5,26.5c0,0 0,1.5 0,1.5c0,0 0.5,0.5 0.5,0.5c0,0 1.5,0 1.5,0c0,0 0,-1.5 0,-1.5c0,0 -0.5,-0.5 -0.5,-0.5c0,0 -1.5,0 -1.5,0z" stroke-linecap="null" stroke-linejoin="null" stroke-dasharray="null" stroke-width="0" stroke="#000000" fill="#e5e0b5"/>
  <path stroke-opacity="0.01" id="svg_7" d="m14.5,26.5l0,2l2,0l0,-2l-2,0z" stroke-linecap="null" stroke-linejoin="null" stroke-dasharray="null" stroke-width="0" stroke="#000000" fill="#e5e0b5"/>
  <path stroke-opacity="0.02" id="svg_8" d="m17.5,26l0.5,1.5l1,0l0.5,-1l-0.5,-1l-1,0l-0.5,0.5z" stroke-linecap="null" stroke-linejoin="null" stroke-dasharray="null" stroke-width="0" stroke="#000000" fill="#e5e0b5"/>
  <path stroke-opacity="0.01" id="svg_9" d="m20,25.5l0,2l1,0l0.5,-1l-0.5,-1l-1,0z" stroke-linecap="null" stroke-linejoin="null" stroke-dasharray="null" stroke-width="0" stroke="#000000" fill="#e5e0b5"/>
  <path stroke-opacity="0" id="svg_12" d="m23.5,26.5l-1,-2l17.5,-8.5l28,-8.5l3,2.5l0.5,3l-1.5,2l-27,7.5l-19.5,4z" stroke-linecap="null" stroke-linejoin="null" stroke-dasharray="null" stroke-width="0" stroke="#000000" fill="#e5e0b5"/>
  <path id="svg_14" d="m74,7l3,0.5l-3,-0.5z" stroke-linecap="null" stroke-linejoin="null" stroke-dasharray="null" stroke-width="0" stroke="#000000" fill="#e5e0b5"/>
  <path stroke-opacity="0" fill-opacity="0.5" id="svg_15" d="m74,8l3,0.5c0,0 -0.5,1.5 -0.5,1.5c0,0 2,1 2,1c0,0 -1.5,1.5 -1.5,1.5c0,0 1.5,3 1.5,3l-3.5,-1.5l1,3c0,0 -3,0 -3,0c0,0 -2.5,3.5 -2.5,3.5c0,0 2.5,-1.5 2.5,-1.5c0,0 2,7.5 2,7.5l0,-5.5c0,0 5.5,4 5.5,4c0,0 -2.5,-5.5 -2.5,-5.5c0,0 5,-0.5 5,-0.5c0,0 -2.5,-3 -2.5,-3l11,-2.5l-11.5,-4l3,-7.5l-7,3l-0.5,-4l-1.5,5l0,2z" stroke-linecap="null" stroke-linejoin="null" stroke-dasharray="null" stroke-width="0" stroke="#000000" fill="#e5e0b5"/>
 </g>
</svg>